<?xml version="1.0" encoding="utf-8"?>
<!DOCTYPE svg PUBLIC "-//W3C//DTD SVG 1.1//EN" "http://www.w3.org/Graphics/SVG/1.1/DTD/svg11.dtd">
<svg version="1.1" xmlns="http://www.w3.org/2000/svg" width="24px" height="24px" viewBox="0 0 24 24" enable-background="new 0 0 24 24" xml:space="preserve">
<path fill-rule="evenodd" clip-rule="evenodd" fill="#010101" d="M12.5,4.546c-4.393,0-7.953,3.561-7.953,7.954
c0,4.393,3.561,7.953,7.953,7.953s7.953-3.561,7.953-7.953C20.453,8.107,16.893,4.546,12.5,4.546z M13.295,17.271h-1.592v-1.59
h1.592V17.271z M13.953,12.984c-0.469,0.438-0.645,0.758-0.645,1.119c0,0.055-0.014,0.781-0.014,0.781h-1.592V14.09h0.014
c0.004-1.047,0.35-1.529,0.795-1.976c0.635-0.634,1.592-0.982,1.592-1.59c0-0.609-0.299-1.193-1.592-1.193
c-0.943,0-1.408,0.532-1.527,0.821c-0.238,0.572-0.584,0.77-0.859,0.77c-0.52,0-0.795-0.335-0.795-0.795s0.957-2.386,3.182-2.386
c1.752,0,3.182,1.019,3.182,2.784C15.693,11.953,14.564,12.418,13.953,12.984z"/>
</svg>
