<?xml version="1.0" encoding="utf-8"?>
<!DOCTYPE svg PUBLIC "-//W3C//DTD SVG 1.1//EN" "http://www.w3.org/Graphics/SVG/1.1/DTD/svg11.dtd">
<svg version="1.1" xmlns="http://www.w3.org/2000/svg" xmlns:xlink="http://www.w3.org/1999/xlink" x="0px" y="0px" width="24px" height="24px" viewBox="0 0 24 24" enable-background="new 0 0 24 24" xml:space="preserve">
<symbol  id="ic_x5F_settings_x5F_lg_x5F_flat" viewBox="0 -24 24 24">
<path fill="#231F20" d="M22.619-10.514l-2.385,0.586c-0.204,0.816-0.525,1.583-0.946,2.285l1.271,2.102
c0.117,0.192,0.092,0.446-0.074,0.613L19.07-3.514c-0.166,0.166-0.42,0.191-0.613,0.074l-2.102-1.271
c-0.701,0.42-1.469,0.741-2.282,0.945l-0.587,2.385C13.433-1.162,13.236-1,13-1h-2c-0.236,0-0.434-0.162-0.486-0.381L9.927-3.766
C9.112-3.97,8.346-4.29,7.645-4.711L5.543-3.439C5.35-3.322,5.096-3.348,4.93-3.515L3.516-4.929
C3.349-5.096,3.324-5.349,3.44-5.541l1.271-2.102C4.291-8.345,3.969-9.111,3.766-9.928l-2.385-0.586C1.162-10.567,1-10.764,1-11v-2
c0-0.236,0.162-0.433,0.381-0.486l2.385-0.586c0.203-0.814,0.524-1.581,0.945-2.283l-1.271-2.102
c-0.117-0.193-0.092-0.446,0.074-0.613l1.415-1.414c0.167-0.166,0.42-0.191,0.612-0.074l2.102,1.271
c0.702-0.421,1.469-0.742,2.284-0.946l0.587-2.385C10.566-22.838,10.764-23,11-23h2c0.236,0,0.433,0.162,0.486,0.381l0.587,2.385
c0.815,0.204,1.581,0.525,2.284,0.946l2.102-1.271c0.191-0.117,0.445-0.093,0.612,0.074l1.414,1.414
c0.167,0.166,0.191,0.42,0.074,0.613l-1.271,2.101c0.42,0.702,0.741,1.469,0.945,2.284l2.385,0.586C22.838-13.433,23-13.236,23-13
v2C23-10.764,22.838-10.567,22.619-10.514z M12-16.2c-2.32,0-4.2,1.881-4.2,4.2S9.68-7.8,12-7.8s4.199-1.881,4.199-4.2
S14.32-16.2,12-16.2z"/>
<polygon fill="none" points="24,-24 0,-24 0,0 24,0"/>
</symbol>
<use xlink:href="#ic_x5F_settings_x5F_lg_x5F_flat"  width="24" height="24" y="-24" transform="matrix(1 0 0 -1 0 0)" overflow="visible"/>
</svg>
